HIERARCHY
ROOT Hips
{
 OFFSET 0.000000 0.000000 0.000000
 CHANNELS 6 Xposition Yposition Zposition Yrotation Xrotation Zrotation
 JOINT Chest
 {
  OFFSET 0.000000 10.080317 -0.001081
  CHANNELS 3 Yrotation Xrotation Zrotation
  JOINT Chest2
  {
   OFFSET 0.000000 11.096852 0.001963
   CHANNELS 3 Yrotation Xrotation Zrotation
   JOINT Chest3
   {
    OFFSET 0.000000 10.026525 0.000000
    CHANNELS 3 Yrotation Xrotation Zrotation
    JOINT Chest4
    {
     OFFSET 0.000000 10.026525 0.000000
     CHANNELS 3 Yrotation Xrotation Zrotation
     JOINT Neck
     {
      OFFSET 0.000000 14.108171 0.000000
      CHANNELS 3 Yrotation Xrotation Zrotation
      JOINT Head
      {
       OFFSET 0.000000 9.333493 0.004668
       CHANNELS 3 Yrotation Xrotation Zrotation
       End Site
       {
        OFFSET 0.000000 17.851786 0.002438
       }
      }
     }
     JOINT RightCollar
     {
      OFFSET -3.071622 7.873185 0.000000
      CHANNELS 3 Yrotation Xrotation Zrotation
      JOINT RightShoulder
      {
       OFFSET -14.378659 0.000000 0.000000
       CHANNELS 3 Yrotation Xrotation Zrotation
       JOINT RightElbow
       {
        OFFSET -30.778728 0.000000 0.000000
        CHANNELS 3 Yrotation Xrotation Zrotation
        JOINT RightWrist
        {
         OFFSET -25.164217 0.000000 0.000000
         CHANNELS 3 Yrotation Xrotation Zrotation
         End Site
         {
          OFFSET -18.796788 0.000000 0.000000
         }
        }
       }
      }
     }
     JOINT LeftCollar
     {
      OFFSET 3.071622 7.873185 0.000000
      CHANNELS 3 Yrotation Xrotation Zrotation
      JOINT LeftShoulder
      {
       OFFSET 14.378659 0.000000 0.000000
       CHANNELS 3 Yrotation Xrotation Zrotation
       JOINT LeftElbow
       {
        OFFSET 30.778728 0.000000 0.000000
        CHANNELS 3 Yrotation Xrotation Zrotation
        JOINT LeftWrist
        {
         OFFSET 25.164217 0.000000 0.000000
         CHANNELS 3 Yrotation Xrotation Zrotation
         End Site
         {
          OFFSET 18.796788 0.000000 0.000000
         }
        }
       }
      }
     }
    }
   }
  }
 }
 JOINT RightHip
 {
  OFFSET -8.194923 0.005295 0.000540
  CHANNELS 3 Yrotation Xrotation Zrotation
  JOINT RightKnee
  {
   OFFSET 0.000000 -42.473320 -0.000511
   CHANNELS 3 Yrotation Xrotation Zrotation
   JOINT RightAnkle
   {
    OFFSET 0.000000 -41.474259 -0.000865
    CHANNELS 3 Yrotation Xrotation Zrotation
    JOINT RightToe
    {
     OFFSET 0.000000 -7.354994 16.712725
     CHANNELS 3 Yrotation Xrotation Zrotation
     End Site
     {
      OFFSET 0.000000 -1.553903 6.764158
     }
    }
   }
  }
 }
 JOINT LeftHip
 {
  OFFSET 8.194923 0.005295 0.000540
  CHANNELS 3 Yrotation Xrotation Zrotation
  JOINT LeftKnee
  {
   OFFSET 0.000000 -42.473320 -0.000511
   CHANNELS 3 Yrotation Xrotation Zrotation
   JOINT LeftAnkle
   {
    OFFSET 0.000000 -41.474259 -0.000865
    CHANNELS 3 Yrotation Xrotation Zrotation
    JOINT LeftToe
    {
     OFFSET 0.000000 -7.354994 16.712725
     CHANNELS 3 Yrotation Xrotation Zrotation
     End Site
     {
      OFFSET 0.000000 -1.553903 6.764158
     }
    }
   }
  }
 }
}
MOTION
Frames: 16
Frame Time: 0.016667
321.946157 95.211844 328.698999 168.621730 10.188474 2.170219 13.695874 7.787324 1.971470 5.833401 3.118649 0.243029 5.833401 3.118649 0.243029 4.372730 2.341558 0.152448 1.327232 9.084436 -1.487998 3.316933 -19.251173 -3.554404 -6.469521 -4.030757 6.454978 -18.731439 -7.491503 47.311451 97.456490 -19.630778 37.708393 3.767923 2.163907 -13.704662 1.954035 -8.328747 9.348785 5.039706 4.833679 -50.855091 -72.562781 -10.529782 -66.626235 -1.045874 7.432121 23.165560 -12.753740 15.451188 -9.252925 -22.933458 24.362549 -4.725693 -13.532136 15.676710 -5.946914 0.029653 -10.610867 10.708408 -14.830000 -49.835048 6.904382 0.647246 41.682207 -6.455326 -7.811405 15.959224 -8.860607 -0.851300 1.709750 -1.112884
323.555449 95.288638 322.196377 169.464173 9.884572 1.572547 12.831259 7.868111 1.595147 5.570826 3.089196 0.220900 5.570826 3.089196 0.220900 4.175989 2.319139 0.137464 1.554106 9.013687 -1.174580 3.613984 -19.386411 -3.053448 -6.848184 -4.056890 6.209810 -18.752466 -6.020521 47.715234 96.440768 -18.304841 38.762839 3.354956 2.455185 -13.555811 1.996533 -8.251814 8.895741 6.164002 4.834925 -51.111049 -72.406024 -11.152002 -66.752604 -1.630173 7.308412 24.040385 -8.335348 14.306969 -7.663813 -26.295889 35.103129 -7.421355 -15.354357 14.255638 -4.104424 -0.190655 -6.854937 6.483061 -12.292036 -47.290168 5.068165 -2.602595 34.736209 -6.194024 -6.049584 15.171745 -8.659947 -0.744857 2.159393 -1.260647
325.153243 95.167697 315.685073 170.524015 9.931390 1.074920 11.960721 7.639085 1.089732 5.245902 3.080944 0.156883 5.245902 3.080944 0.156883 3.932687 2.312256 0.091173 1.712907 8.909813 -0.811879 3.754921 -19.588269 -2.424407 -7.410413 -3.717866 6.093571 -18.839421 -4.388810 48.817789 94.556210 -15.967731 39.254599 2.535480 2.449419 -13.583339 1.881685 -7.818097 8.322104 6.311926 4.461716 -51.855204 -71.890379 -11.436892 -66.179235 -2.215147 7.091357 25.164180 -5.114856 12.023287 -5.885333 -31.199333 45.839781 -12.483748 -15.837402 12.755226 -2.661678 -0.356143 -4.177716 3.924980 -10.597422 -44.942779 3.684226 -2.611015 29.335266 -4.261924 -7.030791 13.659731 -9.791030 -0.300284 2.641150 -0.639868
326.545523 94.885943 309.116255 171.124773 10.315188 1.320345 11.665936 7.133865 -0.071698 4.870252 3.095746 0.046362 4.870252 3.095746 0.046362 3.651565 2.322353 0.010072 1.701937 8.882581 -0.452027 3.559977 -19.653298 -1.714456 -8.252429 -2.575195 6.110075 -18.657823 -2.466158 50.142341 92.309378 -13.295049 38.899014 1.771639 2.170207 -13.843063 1.403509 -6.958634 7.405759 5.427060 3.597736 -52.804511 -71.158862 -11.278511 -64.920727 -2.394174 6.936944 26.043735 -3.801890 8.935523 -5.336647 -38.884917 56.064499 -21.773153 -14.965339 10.359765 -0.770328 -0.817660 -1.434045 2.159914 -7.655640 -42.777347 1.240648 -2.701897 25.402685 -3.449284 -7.886548 11.151240 -10.853844 0.249235 3.207245 0.382976
327.890712 94.382016 302.544028 172.060876 10.531225 1.613354 11.152290 6.675718 -0.915809 4.499281 3.127626 -0.121205 4.499281 3.127626 -0.121205 3.374243 2.344978 -0.113935 1.586344 8.963342 -0.154640 3.186180 -19.516648 -1.072096 -9.299528 -0.979459 6.167881 -18.261284 -0.709152 51.487739 89.508016 -10.322277 38.216311 1.249608 1.905854 -14.048678 0.742623 -5.892221 6.049646 3.821463 2.209223 -53.724265 -70.342531 -10.794172 -63.320893 -1.910043 6.821948 26.339233 -5.167623 5.612861 -5.206997 -50.300964 64.926732 -36.818540 -15.079018 7.490792 0.202112 -0.842466 0.939979 1.404275 -4.496881 -40.846164 -1.334886 -2.397188 23.920603 -3.331861 -9.042683 7.744357 -11.658451 0.851531 3.723696 1.761783
329.097940 93.581860 295.984639 173.820506 10.089169 2.143876 9.564044 6.965863 -1.535252 4.160552 3.148095 -0.350725 4.160552 3.148095 -0.350725 3.121438 2.358815 -0.284444 1.441269 9.013878 0.057550 2.797656 -19.431933 -0.584382 -10.356569 0.562071 6.284535 -17.875045 0.762338 52.558408 86.375932 -6.913106 37.621621 0.855693 1.859137 -13.975083 0.149284 -4.716105 4.665633 1.570739 0.389559 -54.189158 -69.726653 -10.561906 -61.622657 -0.877387 6.891186 26.018800 -9.490549 2.469714 -5.535684 -70.794693 70.570051 -62.781437 -14.780133 7.401349 3.238848 -1.431936 1.375189 0.570112 -3.521821 -38.576724 -3.322293 -1.874632 24.448459 -3.623352 -9.124010 3.938267 -12.257893 1.179633 3.935143 3.167230
330.229179 92.486999 289.677106 175.791922 10.149855 2.810004 7.328574 6.781840 -2.336587 3.884900 3.173437 -0.572881 3.884900 3.173437 -0.572881 2.915910 2.376553 -0.449764 1.373624 8.990686 0.144414 2.623534 -19.478284 -0.381986 -11.240502 1.803826 6.494914 -17.468544 2.161869 53.117166 82.957904 -3.120933 37.072552 0.364617 2.081483 -13.673046 -0.486353 -3.757297 3.078417 -0.081160 -2.010682 -54.009202 -69.482529 -10.337314 -60.719102 0.044030 7.164664 25.784035 -13.069764 -2.085145 -5.147748 -99.560918 70.012816 -96.644894 -14.408611 6.869529 3.931141 -0.307323 1.437157 0.641740 -6.162379 -37.623155 -3.012874 -0.504492 26.983737 -4.596174 -8.664318 0.110311 -12.130150 1.799034 3.632113 3.833184
331.377522 91.082590 283.175535 174.465139 8.570274 2.145154 7.925721 8.269828 -2.120966 3.583263 3.114285 -0.739553 3.583263 3.114285 -0.739553 2.690561 2.331478 -0.572827 1.427474 9.012461 0.083723 2.757991 -19.435466 -0.526450 -11.816280 2.822675 6.606553 -16.954396 3.620809 52.894579 79.009297 0.447369 36.556420 -0.364620 2.241371 -13.034421 -1.285522 -2.635160 1.725689 -1.018623 -4.500742 -53.416462 -69.598458 -10.892363 -60.262959 0.146228 7.445282 25.867849 -11.691605 -5.905489 -3.740056 -121.826645 65.035982 -122.744693 -14.097527 6.350309 3.797240 0.766380 0.883204 0.821544 -4.472851 -33.823012 -3.137712 -6.320165 31.890565 -11.015520 -5.009274 -5.049331 -2.688326 0.209432 2.267393 -0.553795
332.120728 89.519312 277.347385 175.517089 8.977015 0.953865 6.224108 7.609390 -1.104266 3.146317 2.942619 -0.889162 3.146317 2.942619 -0.889162 2.363509 2.202463 -0.681907 1.619021 9.054114 -0.108403 3.225094 -19.348653 -0.994188 -11.897372 3.368209 6.645370 -16.549085 5.769514 52.320691 74.968895 3.524189 35.576798 -1.922090 2.488350 -11.944259 -2.028292 -1.383110 0.906056 -1.062014 -6.994785 -53.123361 -70.182752 -11.875877 -60.236900 -0.038946 7.573964 26.054795 -12.488197 -12.595130 -0.965540 -134.458534 58.668657 -138.314871 -13.203439 5.847702 3.318837 1.146215 0.547582 0.738691 -5.310250 -31.764139 -3.587935 -5.678095 35.704981 -9.914071 -7.208553 -7.816585 3.108071 0.742425 -0.049138 -3.404453
333.911747 88.745953 270.396404 176.476423 9.760535 2.296460 4.411281 7.155230 -2.063632 2.644298 2.951580 -1.094564 2.644298 2.951580 -1.094564 1.988082 2.209008 -0.833541 1.715807 8.714440 -0.392565 3.564746 -19.967123 -1.611435 -12.111393 3.115414 6.813586 -16.585070 7.452797 51.201452 71.062305 5.848131 34.484843 -3.430248 2.782784 -10.611648 -3.653593 -1.554346 -0.211104 -0.256663 -8.723401 -52.652235 -71.303767 -13.177086 -59.991950 0.159441 7.792396 25.999690 -12.941802 -21.467343 -0.716916 -142.553585 53.137842 -148.222200 -13.696363 5.778241 1.986923 1.586678 0.289734 0.745750 -4.329569 -28.950084 -6.693450 -7.699626 37.410668 -10.312013 -5.468972 -11.715410 8.838333 -0.546515 -1.840667 -4.950824
334.250382 88.508214 264.070149 176.449168 10.892249 3.373088 3.402914 6.931574 -2.602705 2.128640 2.921819 -1.262629 2.128640 2.921819 -1.262629 1.602183 2.187010 -0.956964 1.937650 8.282436 -0.613442 4.129090 -20.752254 -2.175409 -12.258019 2.212896 6.565567 -18.277988 8.357541 49.874964 67.920112 7.693108 34.614382 -4.446217 2.897282 -9.855018 -4.975751 -2.467116 -1.072728 0.111446 -10.470919 -52.691920 -72.131010 -14.592076 -59.281557 0.382030 7.898649 25.702461 -12.302965 -31.890321 -0.067689 -147.430869 48.924806 -153.905070 -14.829824 6.023378 0.678282 1.275071 0.442646 0.450464 -4.918132 -25.840758 -7.720162 -8.932675 37.138074 -11.839809 -3.658694 -14.121867 12.835088 -1.288443 -4.521981 -5.371789
335.138618 88.612275 257.787851 176.602368 11.980293 3.783645 2.463275 6.299514 -2.736707 1.679241 2.745431 -1.166969 1.679241 2.745431 -1.166969 1.264441 2.055895 -0.882616 2.172666 7.961225 -0.980496 4.794344 -21.320016 -3.036039 -12.777661 2.493745 5.966548 -20.503857 8.523596 48.704472 65.866548 8.936009 35.387427 -4.530651 2.892300 -10.246441 -5.842411 -2.950494 -1.592882 -0.286757 -12.101327 -53.135993 -72.927660 -15.838075 -58.113631 0.445943 7.916753 25.317621 -13.392603 -42.147123 2.320842 -147.143882 46.708891 -154.900822 -15.594368 6.914840 -0.688431 0.755060 0.489395 0.046719 -5.883870 -22.011538 -7.543635 -8.457774 35.646487 -12.489095 -3.782160 -15.561514 15.041054 -1.558906 -7.132638 -4.518009
336.074765 89.026880 250.594259 176.999276 11.328048 3.115927 1.567106 6.581508 -1.806482 1.274225 2.493728 -0.949603 1.274225 2.493728 -0.949603 0.959397 1.868331 -0.717296 2.584617 7.942489 -1.495252 5.868895 -21.299607 -4.261924 -13.810622 3.453360 4.976563 -22.035015 9.260685 47.625671 64.612460 9.113878 36.085510 -3.950287 2.743294 -10.714464 -6.441786 -2.898088 -1.860609 -0.505570 -12.977098 -53.738942 -74.552994 -16.924039 -56.639324 0.317657 8.113013 25.280609 -16.081054 -48.170952 6.623288 -143.692173 48.403766 -152.057336 -17.921536 5.978279 -5.657610 2.282519 1.393184 0.551866 -6.793914 -14.981487 -6.465969 -7.703623 32.242579 -11.946975 -4.367473 -15.739853 14.798637 -1.933531 -10.113351 -2.290434
337.263271 89.687429 242.948978 176.248552 10.961074 1.407924 1.826179 6.475403 -0.164725 0.870200 2.253552 -0.637823 0.870200 2.253552 -0.637823 0.654920 1.689262 -0.481517 3.130910 7.997878 -1.918886 7.155215 -21.124544 -5.366689 -14.948105 3.814795 3.654805 -22.940939 10.492072 46.845993 63.950978 9.254554 36.913950 -3.210988 2.570512 -10.685817 -6.520038 -3.089206 -1.725260 -0.124812 -13.207014 -54.573947 -76.304970 -18.050734 -55.547655 -0.197701 8.345843 25.673180 -17.583484 -52.428126 11.598906 -139.180525 52.414338 -146.490859 -19.893085 5.586889 -8.088522 1.520245 0.701509 0.068478 -6.671069 -7.560790 -4.404622 -6.717748 27.451603 -10.622717 -5.258518 -13.636810 11.671544 -2.231765 -14.274395 1.827499
338.676820 90.464173 234.840820 175.046454 11.039639 -0.595912 2.539404 5.754032 1.706512 0.525825 1.995639 -0.312000 0.525825 1.995639 -0.312000 0.395348 1.496463 -0.235694 3.665641 8.168027 -2.313985 8.387510 -20.725896 -6.391851 -16.029885 4.180085 2.118219 -23.318929 11.930399 46.536376 63.548685 9.372453 37.570816 -2.667494 2.522714 -10.269774 -6.222334 -3.328340 -1.355436 0.949479 -13.172078 -55.433845 -77.381888 -19.329702 -55.599532 -0.917132 8.358078 26.354311 -18.092571 -55.236148 15.652933 -132.603063 57.861135 -137.891115 -20.316664 4.003543 -9.898241 0.712779 0.901589 -0.575283 -6.050909 -0.312432 -1.982285 -4.813690 21.226841 -8.782266 -6.756740 -8.125932 5.866399 -3.106652 -20.502328 8.055923
340.437868 91.275210 226.690458 173.792599 11.623801 -2.402440 3.169144 4.057295 3.374819 0.308135 1.761039 -0.018612 0.308135 1.761039 -0.018612 0.231136 1.320770 -0.014846 4.216308 8.656426 -2.495973 9.499578 -19.747506 -6.957111 -17.283299 5.136670 0.355944 -23.170783 13.178359 46.864048 63.075717 9.326424 38.155990 -2.284044 2.453598 -10.064384 -5.819986 -3.328591 -0.687459 2.085624 -12.860289 -56.277282 -77.849980 -20.581980 -56.262678 -1.553707 8.235336 26.744029 -17.197414 -57.037804 17.376424 -122.852191 64.000236 -125.351027 -18.764427 2.354018 -10.333859 -0.801738 1.197976 -1.531098 -4.860958 6.146349 0.292279 -2.093357 14.273394 -6.331280 -9.713397 1.427830 -3.042025 -5.832393 -29.684701 17.134832
